# xmcd CD database file
#
# Track frame offsets:
#	150
#	13310
#	34813
#	56073
#	83599
#	105789
#	138008
#	174097
#	187047
#	210728
#	237189
#	261289
#	284581
#
# Disc length: 4071 seconds
#
# Revision: 0
# Processed by: cddbd v1.5.2PL0 Copyright (c) Steve Scherf et al.
# Submitted via: CDex 1.51
#
DISCID=ad0fe50d
DTITLE=Regina Carter - I'll be seeing you - a sentimental journey
DYEAR=2008
DGENRE=Jazz
TTITLE0=Anitra's Dance
TTITLE1=Little Brown Jug
TTITLE2=Bei Mir Bist Du Schon
TTITLE3=Sentimental Journey
TTITLE4=You Took Advantage of Me
TTITLE5=St.Louis Blues
TTITLE6=A-Tisket, A-tasket
TTITLE7=Blue Rose
TTITLE8=This Can't Be Love
TTITLE9=How Ruth Felt
TTITLE10=There's a Small Hotel
TTITLE11=I'LL Be Seeing You
TTITLE12=Georgia On My Mind
EXTD=YEAR: 2008
EXTT0=
EXTT1=
EXTT2=
EXTT3=
EXTT4=
EXTT5=
EXTT6=
EXTT7=
EXTT8=
EXTT9=
EXTT10=
EXTT11=
EXTT12=
PLAYORDER=
